<svg width="51" height="33" viewBox="0 0 51 33" fill="none" xmlns="http://www.w3.org/2000/svg">
<path d="M10.9367 23.0636C11.5 23.1378 17.9549 22.8829 29.7676 22.6857C40.3666 22.5086 45.8604 23.9955 46.5238 23.8484C46.9297 23.7584 46.8745 22.5544 46.6648 21.8015C46.2598 20.3469 45.0004 19.7369 44.1025 19.3792C41.9992 18.5414 40.165 20.526 39.5157 21.2421C37.2053 23.7907 40.0865 11.2917 38.7082 7.11315C38.3377 5.98978 37.4129 5.03253 36.5411 4.3504C35.6694 3.66827 34.6993 3.38245 33.738 3.56926C31.7294 3.95957 29.9317 6.2483 28.3595 8.98249C26.5521 12.1258 27.5 15.9798 27.9868 18.2746C28.3871 20.161 29.8656 21.0879 30.9532 21.7099C31.9794 22.2968 33.0905 21.9964 33.8483 21.62C34.6047 21.2443 34.6277 19.6525 34.7075 18.1504C34.7799 16.7866 33.3461 13.9119 31.1225 10.2705C29.6847 7.91588 27.4977 7.53579 25.5035 7.35192C23.4993 7.16713 21.2883 7.66989 19.338 8.44674C17.9581 8.99642 17.6743 10.5442 17.4208 11.6237C17.2768 12.2372 17.4177 13.0521 17.8487 13.7527C18.7984 15.2963 20.588 15.8777 21.9909 16.2229C22.6941 16.396 23.4252 16.2564 23.8977 15.9214C24.3703 15.5864 24.5738 14.9814 24.4363 14.2429C24.2987 13.5043 23.8139 12.6506 23.2903 12.0958C22.7667 11.5409 22.2192 11.3108 21.5615 11.3797C18.4225 11.7085 16.7457 15.5196 15.3999 17.422C15.0812 17.8726 14.7376 18.2897 14.8342 18.7045C14.9308 19.1193 15.4627 19.5053 16.4017 19.4759C17.3408 19.4465 18.6708 18.99 18.8084 18.5247C18.9461 18.0594 17.8509 17.5991 16.8408 17.5401C13.5816 18.3048 11.8158 18.7087 9.57623 20.8786C9.35299 21.572 9.7127 22.2513 10.51 23.0073" stroke="#F5F5F5" stroke-width="7" stroke-linecap="round"/>
<path d="M4.80448 28.1857C5.32088 28.2538 11.2388 28.0201 22.0687 27.8392C31.7858 27.6769 36.8226 29.0401 37.4308 28.9052C37.8029 28.8227 37.7523 27.7188 37.5601 27.0287C37.1888 25.6951 36.0341 25.1358 35.2109 24.8078C33.2827 24.0397 31.601 25.8592 31.0058 26.5158C28.8876 28.8523 31.5291 17.3932 30.2655 13.5623C29.9258 12.5324 29.0779 11.6548 28.2787 11.0294C27.4794 10.404 26.5901 10.142 25.7087 10.3132C23.8673 10.6711 22.2191 12.7694 20.7778 15.2761C19.1207 18.1579 19.9897 21.6913 20.4361 23.7951C20.803 25.5246 22.1586 26.3743 23.1556 26.9446C24.0965 27.4827 25.1151 27.2073 25.8098 26.8622C26.5033 26.5177 26.5245 25.0584 26.5976 23.6813C26.664 22.431 25.3494 19.7954 23.3109 16.457C21.9927 14.2982 19.9876 13.9498 18.1593 13.7812C16.3219 13.6118 14.2949 14.0727 12.5068 14.7849C11.2417 15.2889 10.9815 16.7079 10.7491 17.6976C10.6171 18.26 10.7462 19.0071 11.1414 19.6495C12.0121 21.0646 13.6528 21.5976 14.939 21.9142C15.5836 22.0728 16.2539 21.9449 16.6872 21.6377C17.1204 21.3306 17.307 20.7759 17.1809 20.0988C17.0548 19.4218 16.6103 18.6391 16.1303 18.1304C15.6503 17.6217 15.1483 17.4107 14.5453 17.4739C11.6674 17.7753 10.1302 21.2694 8.89633 23.0135C8.60411 23.4266 8.2891 23.809 8.37769 24.1893C8.46628 24.5696 8.95392 24.9235 9.81483 24.8965C10.6757 24.8696 11.8951 24.451 12.0213 24.0244C12.1475 23.5978 11.1434 23.1758 10.2173 23.1218C7.22933 23.8229 5.61046 24.1931 3.55717 26.1825C3.3525 26.8182 3.68229 27.441 4.41327 28.1341" stroke="#FAFAFA" stroke-width="7" stroke-linecap="round"/>
</svg>
