<svg width="39" height="38" viewBox="0 0 39 38" fill="none" xmlns="http://www.w3.org/2000/svg">
<path d="M4.42593 9.09147C3.86065 11.8887 3.29537 14.686 2.72153 17.5892C2.14769 20.4924 1.58241 23.4168 1.2912 26.3219C1 29.227 1 32.0243 1 34.9063" stroke="#3586FF" stroke-width="2" stroke-linecap="round"/>
<path d="M6.13885 8.32089C12.7406 8.32089 20.7196 7.55801 24.459 7.22858C24.9795 7.18272 25.3172 7.4193 25.9442 7.4848C27.4701 7.64422 28.4074 14.5434 28.3509 25.6476C27.9518 32.2054 27.7222 33.3613 27.4961 33.9392C27.27 34.1357 26.8178 34.1357 26.3518 34.1357" stroke="#3586FF" stroke-width="2" stroke-linecap="round"/>
<path d="M2.02771 35.2916C4.06271 35.8002 9.068 36.3165 15.346 36.7653C20.2845 37.2181 23.9468 36.9638 25.8876 36.4494C26.3484 36.3203 26.6876 36.1932 27.3796 36.0622" stroke="#3586FF" stroke-width="2" stroke-linecap="round"/>
<path d="M27.7222 7.16498C29.0789 6.4021 31.2475 4.86477 33.6439 3.06736C34.9098 2.28714 35.7115 1.90184 36.6228 1.45297C37.0819 1.2584 37.5341 1.13125 38 1.00025" stroke="#3586FF" stroke-width="2" stroke-linecap="round"/>
<path d="M37.3149 1.38557C34.3686 1.38557 29.0995 1.63986 24.4299 1.83444C23.2754 1.89801 22.5971 2.02516 21.3997 2.09066C20.2023 2.15616 18.5065 2.15616 16.0741 2.54145" stroke="#3586FF" stroke-width="2" stroke-linecap="round"/>
<path d="M6.82404 7.55026C8.75969 6.14008 10.8118 5.36949 12.6413 4.53533C13.5526 4.2136 14.3577 3.95546 15.0411 3.69923C15.3854 3.57016 15.7246 3.44301 16.074 3.31201" stroke="#3586FF" stroke-width="2" stroke-linecap="round"/>
<path d="M28.75 35.2916C28.9761 35.2916 30.2231 34.4016 32.2753 32.8623C33.1969 32.2131 33.8752 31.8316 34.3942 31.5716C34.9132 31.3115 35.2524 31.1843 36.287 30.668" stroke="#3586FF" stroke-width="2" stroke-linecap="round"/>
<path d="M37.6574 3.31201C37.6574 3.8206 37.5443 9.80424 37.3165 18.7913C37.0887 22.6924 36.8591 23.856 36.6878 25.7073C36.6296 27.0501 36.6296 29.2116 36.6296 31.4386" stroke="#3586FF" stroke-width="2" stroke-linecap="round"/>
<path d="M6.92186 12.7232C6.93267 12.711 6.94349 12.6988 7.24658 12.5466C7.54967 12.3943 8.14469 12.1023 8.52695 11.9336C9.05202 11.7019 9.29246 11.6421 9.39638 11.5988C9.4519 11.5757 9.24 11.9102 8.77267 12.4118C8.45964 12.7478 7.9375 13.1811 7.72424 13.4069C7.51098 13.6328 7.60835 13.6206 7.98848 13.4257C8.36861 13.2309 9.02855 12.8537 9.58489 12.5742C10.1412 12.2947 10.574 12.1244 10.7915 12.0549C11.009 11.9854 10.9982 12.0219 10.8844 12.1563C10.7707 12.2907 10.5543 12.5219 9.76126 13.1702C8.96822 13.8186 7.60507 14.8771 6.88661 15.4772C6.16816 16.0773 6.1357 16.1868 6.43813 16.0728C6.74056 15.9589 7.37886 15.6182 8.49204 14.9074C9.60521 14.1965 11.1739 13.1258 12.047 12.556C12.92 11.9861 13.0498 11.9496 13.0842 12.016C13.1187 12.0824 13.0537 12.2527 12.7931 12.6446C12.5325 13.0366 12.0781 13.6449 11.3031 14.4693C10.5281 15.2938 9.44621 16.3158 8.73743 17.0248C8.02864 17.7338 7.72572 18.0989 7.61835 18.3173C7.51098 18.5358 7.60835 18.5966 8.57269 17.6911C9.53702 16.7855 11.3654 14.9118 12.7616 13.5937C14.1579 12.2756 15.0667 11.5699 15.5619 11.2307C16.0571 10.8915 16.1112 10.9401 16.0363 11.1538C15.9613 11.3675 15.7558 11.7446 14.7249 12.8941C13.694 14.0435 11.844 15.9537 12.1027 15.8428C12.3614 15.7318 14.7847 13.5417 16.0494 12.3952C17.314 11.2487 17.3465 11.2122 17.2712 11.3516C17.196 11.491 17.0121 11.8073 16.7118 12.2015C16.4115 12.5956 16.0004 13.058 14.7283 14.16C13.4563 15.2621 11.3359 16.9898 10.2814 17.8738C9.22689 18.7577 9.30262 18.7456 10.391 17.6868C11.4795 16.6281 13.5783 14.5232 14.7569 13.3962C15.9354 12.2693 16.1302 12.1841 16.1061 12.3593C16.082 12.5344 15.8332 12.9724 14.6447 14.2931C13.4563 15.6138 11.3359 17.8039 10.0758 19.1755C8.81578 20.547 8.4804 21.0337 8.3509 21.2601C8.22141 21.4865 8.30796 21.4378 9.71569 20.0379C11.1234 18.6379 13.8497 15.8881 15.4165 14.3621C16.9832 12.836 17.3078 12.617 17.3181 12.7232C17.3284 12.8294 17.0147 13.2674 15.4142 14.8679C13.8137 16.4685 10.9359 19.2182 9.31819 20.8538C7.70047 22.4894 7.43001 22.9274 7.51246 23.007C7.59491 23.0867 8.03847 22.7946 8.78627 22.0602C9.53407 21.3257 10.5727 20.1577 11.4106 19.0449C12.2486 17.9322 12.8544 16.9102 13.3775 16.1221C13.9006 15.334 14.3225 14.8108 14.3181 15.0279C14.3136 15.2451 13.8701 16.2185 13.1764 17.4013C12.4827 18.5841 11.5522 19.9468 10.8241 21.1233C10.096 22.2998 9.59833 23.2489 9.58538 23.6039C9.57243 23.959 10.0593 23.6913 10.494 23.3223C10.9287 22.9532 11.2965 22.4908 11.605 21.985C11.9135 21.4791 12.1515 20.9438 12.4905 20.0657C12.8295 19.1876 13.2623 17.9831 13.5285 17.3261C13.7947 16.669 13.8812 16.596 13.9042 16.7044C13.9271 16.8128 13.8838 17.1048 13.5099 18.034C13.136 18.9631 12.4328 20.5205 12.0489 21.3593C11.665 22.1981 11.6217 22.2711 11.7942 22.0349C11.9666 21.7988 12.3561 21.2513 13.4547 20.0567C14.5533 18.8621 16.3492 17.037 17.3933 16.0055C18.4375 14.9741 18.6755 14.7916 18.6791 14.8497C18.6827 14.9077 18.4447 15.2119 17.4025 16.196C16.3603 17.18 14.5212 18.8348 13.2762 20.0705C12.0312 21.3062 11.4362 22.0727 11.1838 22.4554C10.9313 22.8381 11.0395 22.8138 11.7444 21.9131C12.4492 21.0123 13.7475 19.2359 14.611 18.1505C15.4745 17.065 15.864 16.7243 16.0808 16.634C16.2977 16.5437 16.3302 16.714 16.1413 17.0938C15.9525 17.4735 15.5414 18.0576 14.8536 18.9059C14.1658 19.7543 13.2137 20.8494 12.3879 21.9002C11.5621 22.951 10.8913 23.9243 10.7081 24.4379C10.5248 24.9515 10.8494 24.9759 11.6116 24.5504C12.3738 24.1249 13.5639 23.2489 14.7936 21.8425C16.0233 20.4361 17.2566 18.5258 17.7838 17.6999C18.311 16.874 18.0946 17.1904 16.9229 18.3997C15.7512 19.6091 13.6307 21.7018 12.652 22.7434C11.6732 23.785 11.9004 23.712 13.0019 22.774C14.1035 21.836 16.0725 20.0353 17.3411 18.7974C18.6096 17.5594 19.1181 16.9389 19.3855 16.601C19.6528 16.2631 19.6636 16.2266 18.6631 17.4549C17.6625 18.6832 15.6502 21.1775 14.5108 22.6936C13.3714 24.2097 13.1659 24.6721 13.3088 24.7399C13.4517 24.8078 13.9494 24.4671 14.6602 23.8414C15.3709 23.2157 16.2797 22.3153 17.094 21.3405C17.9084 20.3656 18.6008 19.3436 19.163 18.3669C19.7253 17.3902 20.1364 16.4898 20.4022 15.8313C20.6681 15.1728 20.7763 14.7835 20.2857 15.6354C19.7951 16.4873 18.7024 18.5922 18.1395 19.7069C17.5766 20.8217 17.5766 20.8826 17.82 20.6097C18.0634 20.3369 18.5503 19.7285 19.0824 18.8798C19.6144 18.031 20.177 16.9603 20.5858 15.8977C20.9946 14.8351 21.2327 13.8131 21.3174 13.2805C21.4021 12.7479 21.3264 12.7357 21.0602 12.9728C20.794 13.2099 20.3396 13.6965 19.8675 14.2636C19.3955 14.8307 18.9194 15.4634 18.6796 15.8927C18.4398 16.3221 18.4506 16.5289 18.6888 16.4347C18.927 16.3405 19.3922 15.939 19.5831 15.9329C19.7741 15.9268 19.6767 16.3283 19.54 16.6812C19.4033 17.034 19.2302 17.3261 18.4054 18.2187C17.5805 19.1113 16.1092 20.5957 15.2863 21.4638C14.4635 22.3319 14.3336 22.5388 14.9808 22.2681C15.6279 21.9975 17.056 21.2431 18.2136 20.5443C19.3712 19.8454 20.215 19.2249 19.1784 20.1402C18.1418 21.0555 15.1991 23.5254 14.7218 24.2685C14.2445 25.0116 16.3216 23.9531 17.5864 23.2374C18.8512 22.5218 19.2407 22.1811 18.5704 22.8634C17.9002 23.5457 16.1584 25.2613 16.0292 25.6766C15.9 26.0919 17.4363 25.1551 18.6713 24.3318C19.9062 23.5084 20.7934 22.8271 21.364 22.3666C21.9346 21.9061 22.1618 21.6871 20.5694 22.8518C18.9771 24.0165 15.5584 26.5716 14.6736 27.4803C13.7888 28.389 15.5414 27.5738 16.5795 27.0017C17.6176 26.4297 17.8881 26.1255 17.243 26.7353C16.598 27.3452 15.0293 28.8782 14.6161 29.8566C14.2028 30.8349 14.9926 31.2121 16.1351 31.4186C17.2776 31.6251 18.749 31.6494 19.6097 31.6376C20.4704 31.6258 20.676 31.5771 20.7386 31.5155C20.8305 31.4252 20.2577 31.3058 19.5867 31.3483C19.2818 31.3677 19.0565 31.4761 18.9719 31.38C18.8873 31.284 18.9522 31.0042 19.2128 30.13C19.4735 29.2558 19.9279 27.7957 20.1782 26.928C20.4285 26.0602 20.4609 25.8291 20.4722 25.7343C20.4835 25.6395 20.4727 25.6882 20.4455 26.0722C20.4183 26.4562 20.375 27.1741 20.3798 27.6777C20.3845 28.1814 20.4386 28.4491 20.5476 28.4531C20.6566 28.4572 20.8189 28.1895 21.0107 27.8022C21.2025 27.4148 21.4189 26.916 21.5249 26.5678C21.631 26.2195 21.6202 26.037 21.2684 26.0221C20.9166 26.0071 20.2242 26.1653 19.4889 26.4901C18.7535 26.815 17.9962 27.3017 17.5033 27.7227C17.0104 28.1438 16.8049 28.4844 16.8504 28.7025C16.896 28.9206 17.1989 29.0058 17.8581 28.9827C18.5172 28.9597 19.5233 28.8259 20.02 28.7813C20.5167 28.7366 20.4734 28.7853 20.3429 28.9929C20.2124 29.2005 19.9961 29.5655 20.1605 29.6379C20.3249 29.7104 20.8766 29.4792 21.5936 29.0194C22.3106 28.5597 23.1761 27.8783 23.4975 27.363C23.819 26.8478 23.5701 26.5193 21.7542 26.4717C19.9384 26.4241 16.5629 26.6675 14.5969 26.8598C12.6308 27.052 12.1764 27.1859 12.1101 27.3096C12.0437 27.4333 12.3791 27.5428 13.1469 27.5627C13.9146 27.5826 15.1047 27.5096 16.0315 27.3199C16.9583 27.1302 17.5858 26.826 17.9199 26.5963C18.2539 26.3666 18.2756 26.2206 18 26.1332C17.7245 26.0459 17.1511 26.0215 16.0335 26.2523C14.9159 26.4831 13.2714 26.9698 12.1051 27.3726C10.9389 27.7754 10.3006 28.0796 10.0312 28.212C9.76192 28.3443 9.88093 28.2957 10.2073 28.0455C10.5337 27.7953 11.0638 27.3452 11.5208 26.8577C11.9778 26.3703 12.3456 25.8593 12.5622 25.4257C12.7787 24.9921 12.8328 24.6514 12.6497 24.5185C12.4666 24.3856 12.0447 24.4708 11.3405 24.8796C10.6363 25.2885 9.66258 26.0186 8.80398 26.8327C7.94537 27.6468 7.23134 28.5228 6.91218 29.0045C6.59303 29.4862 6.6904 29.547 6.89743 29.1951C7.10446 28.8432 7.4182 28.0767 7.59606 26.5381C7.77391 24.9995 7.80636 22.712 7.33083 22.8112C6.8553 22.9104 5.87081 25.4655 5.46642 26.6905C5.06203 27.9155 5.26758 27.733 5.56821 27.2132C5.86884 26.6933 6.25831 25.8416 6.57795 24.8796C6.8976 23.9177 7.13561 22.8713 7.30149 21.949C7.46738 21.0267 7.55393 20.2602 7.60933 19.9748C7.66474 19.6894 7.68637 19.9084 7.34051 21.2623C6.99464 22.6162 6.2806 25.0983 5.91277 26.5899C5.54493 28.0815 5.54493 28.5073 5.7559 28.3069C5.96686 28.1065 6.38879 27.267 6.6927 26.287C6.9966 25.307 7.1697 24.2119 7.29674 22.9482C7.42378 21.6845 7.49951 20.2853 7.5277 19.68C7.5559 19.0748 7.53426 19.306 7.10118 21.0676C6.66811 22.8293 5.82425 26.1144 5.41659 27.9163C5.00892 29.7181 5.06301 29.9371 5.26939 29.5085C5.47576 29.0799 5.83278 27.997 6.02751 26.7822C6.22225 25.5673 6.24389 24.2532 6.19012 22.9801C6.13636 21.707 6.00653 20.5146 5.93965 19.7787C5.87277 19.0427 5.87277 18.7994 5.87277 18.9052C5.87277 19.011 5.87277 19.4734 5.67804 21.0134C5.4833 22.5535 5.09383 25.1573 4.99056 26.5899C4.88729 28.0225 5.08203 28.205 5.2743 27.8001C5.46658 27.3953 5.6505 26.3976 5.75606 25.1049C5.86163 23.8123 5.88326 22.2549 5.92687 21.3674C5.97047 20.4799 6.03538 20.3096 5.72262 21.8644C5.40987 23.4192 4.71747 26.7044 4.50683 28.3784C4.2962 30.0525 4.5883 30.016 4.9822 29.7356C5.3761 29.4552 5.86294 28.9321 6.31388 28.1637C6.76482 27.3953 7.16511 26.3976 7.3605 25.9019C7.5559 25.4062 7.53426 25.4427 7.37706 26.0881C7.21986 26.7335 6.92776 27.9867 6.85842 28.9669C6.78908 29.9471 6.95136 30.6163 7.20806 30.8698C7.46476 31.1232 7.81095 30.9407 8.20026 30.6338C8.58957 30.3269 9.0115 29.901 9.41818 29.42C9.82486 28.9391 10.2035 28.4159 10.4851 28.0916C10.7667 27.7673 10.9398 27.6578 10.8992 28.2828C10.8585 28.9077 10.5989 30.2704 10.5895 30.9116C10.5802 31.5528 10.829 31.4311 11.7578 30.7236C12.6866 30.016 14.2877 28.7263 15.5561 27.6117C16.8245 26.4971 17.7117 25.5968 18.2606 24.9626C18.8096 24.3284 18.9935 23.9878 18.7475 24.2259C18.5014 24.4641 17.8199 25.2915 17.1334 26.3139C16.4469 27.3363 15.7761 28.5287 15.3657 29.368C14.9552 30.2074 14.8254 30.6576 14.9695 30.6522C15.1136 30.6469 15.5355 30.1724 15.9368 29.4777C16.338 28.7831 16.7059 27.8827 16.9278 27.2425C17.1498 26.6022 17.2147 26.2494 17.2373 26.0859C17.2599 25.9223 17.2383 25.9588 17.2217 26.1115C17.1763 26.5298 17.2373 27.0996 17.4328 27.4934C17.5147 27.6583 17.8015 27.4978 18.2269 27.1191C18.6522 26.7405 19.2689 26.0835 19.9761 25.1488C20.6832 24.2141 21.4621 23.0218 21.858 22.3041C22.2539 21.5864 22.2431 21.3796 21.8696 21.5042C21.4962 21.6288 20.7606 22.0912 19.7974 22.9377C18.8342 23.7842 17.6658 25.001 16.9449 25.9319C16.2239 26.8629 15.9859 27.4713 16.1392 27.7603C16.2925 28.0494 16.8442 28.0007 17.6261 27.6106C18.408 27.2205 19.4033 26.4905 20.3272 25.4087C21.251 24.327 22.0732 22.9156 22.4643 21.9147C22.8555 20.9139 22.7905 20.3664 22.5516 20.1695C22.3126 19.9726 21.9014 20.1429 21.2028 20.9972C20.5042 21.8515 19.5305 23.3846 18.9424 24.3507C18.3542 25.3169 18.1811 25.6698 18.2056 25.7055C18.23 25.7413 18.4572 25.4493 19.1097 23.7841C19.7623 22.1188 20.8334 19.0892 21.3689 17.5528C21.9044 16.0164 21.8719 16.0651 21.6334 16.7411C21.3949 17.4171 20.9514 18.719 20.7012 19.5053C20.4511 20.2915 20.4078 20.5227 20.5099 20.4836C20.6121 20.4445 20.8609 20.1282 21.2812 19.4907C21.7015 18.8532 22.2857 17.9042 22.7002 17.1476C23.1148 16.391 23.342 15.8557 23.1669 16.097C22.9918 16.3383 22.4076 17.3725 21.7172 18.8665C21.0268 20.3605 20.2478 22.2829 20.2198 23.3827C20.1918 24.4826 20.9383 24.7016 21.6257 24.4859C22.3132 24.2702 22.9191 23.6132 23.0689 23.3903C23.2187 23.1674 22.8941 23.3986 22.4889 24.053C22.0837 24.7075 21.6077 25.7782 21.33 26.6157C21.0523 27.4532 20.9874 28.025 21.0081 28.2588C21.0287 28.4926 21.1369 28.3709 21.2305 28.1987C21.3241 28.0265 21.3999 27.8075 21.4389 27.6704C21.4779 27.5332 21.4779 27.4845 21.4779 27.4344" stroke="#88B8FF" stroke-width="2" stroke-linecap="round"/>
<path d="M30.3951 9.7367C31.7366 9.34735 32.6116 9.07377 32.5116 9.1335C32.2401 9.29571 31.4704 9.60692 31.605 9.77633C31.7395 9.94575 32.789 9.93359 33.1835 9.97599C33.5781 10.0184 33.286 10.1157 32.8326 10.318C32.3792 10.5202 31.7733 10.8244 31.4179 11.0176C31.0626 11.2108 30.976 11.2838 30.9368 11.3457C30.8977 11.4077 30.9085 11.4563 30.9736 11.4936C31.1447 11.5915 31.8104 11.5802 32.5811 11.635C32.8091 11.6512 32.3546 12.3501 32.0844 13.0198C31.9951 13.2412 32.6257 13.2637 33.0981 13.2335C33.5705 13.2032 34.0249 13.1302 34.3131 13.0683C34.6012 13.0063 34.7094 12.9577 34.2675 13.1516C33.8256 13.3456 32.8303 13.7836 32.2905 14.0761C31.7507 14.3687 31.6966 14.5025 32.2584 14.5472C32.8201 14.5918 33.9993 14.5431 33.8766 14.9865C33.7538 15.4298 32.2933 16.3667 31.6437 16.8493C30.994 17.332 31.1996 17.332 31.3974 17.3076C31.5953 17.2833 31.7792 17.2346 31.8415 17.2521C31.9301 17.277 31.7071 17.5764 31.6304 17.7853C31.6045 17.8557 31.6618 17.8725 31.7166 17.8544C31.8448 17.8121 32.033 17.774 32.2567 17.8537C32.3534 17.8881 32.4047 17.9455 32.3515 18.0253C32.2982 18.1051 32.1359 18.2146 32.0794 18.2832C32.0231 18.3514 32.5221 18.1092 33.1014 17.6911C33.2869 17.5572 33.2696 17.6136 32.9825 18.0402C32.6955 18.4668 32.1438 19.2699 31.919 19.4949C31.6943 19.72 31.8133 19.3429 31.9125 18.82C32.0117 18.2972 32.0874 17.6402 32.1264 17.2044C32.1654 16.7686 32.1654 16.5739 32.1492 17.5869C32.133 18.5999 32.1005 20.8265 32.1054 21.9918C32.1103 23.1571 32.1536 23.1936 32.1921 22.7318C32.2306 22.27 32.2631 21.3088 32.1825 21.9147C32.1018 22.5207 31.9071 24.723 31.8392 25.8027C31.7713 26.8824 31.8363 26.7729 31.9022 26.4002C31.968 26.0274 32.033 25.3947 32.061 24.6369C32.089 23.879 32.0782 23.0151 32.0943 23.3001C32.1103 23.5851 32.1536 25.0452 32.1921 25.846C32.2306 26.6468 32.2631 26.7442 32.3015 26.7882C32.3398 26.8323 32.3831 26.8201 32.4865 25.9865C32.59 25.1529 32.7522 23.4981 32.8791 23.6921C33.006 23.886 33.0925 25.9788 33.2183 26.7952C33.344 27.6117 33.5063 27.0886 33.6061 26.1133C33.7059 25.1381 33.7384 23.7267 33.7659 22.9327C33.7935 22.1387 33.8151 22.0049 33.7776 23.0857C33.74 24.1666 33.6426 26.4662 33.6195 26.5132C33.5964 26.5602 33.6505 24.2849 33.6567 23.5509C33.658 23.4029 33.5968 24.7414 33.662 24.8288C33.7057 24.8873 33.7705 24.5025 33.8959 23.3912C34.0213 22.2799 34.2052 20.3332 34.2405 19.8292C34.2755 19.3281 34.0341 21.3995 34.0665 21.3272C34.1172 21.2145 34.1639 20.9143 34.2028 20.3562C34.2416 19.7982 34.2524 18.983 34.1985 17.9547C34.1446 16.9264 34.0256 15.7097 33.9534 15.9042C33.8813 16.0987 33.8597 17.7412 33.8702 18.4901C33.8807 19.2389 33.9239 19.0442 33.9895 17.6055C34.0551 16.1669 34.1416 13.4901 34.17 12.5005C34.176 12.2897 34.1541 13.2257 34.2193 13.0574C34.3281 12.7768 34.3278 12.0131 34.2585 11.1988C34.1892 10.3845 33.9836 9.52064 33.8507 9.03303C33.7177 8.54542 33.6636 8.46025 33.5925 8.58063C33.5213 8.70102 33.4348 9.02953 33.282 9.48469C33.1293 9.93985 32.9129 10.5117 32.7581 10.9766C32.6034 11.4416 32.5169 11.7823 32.4885 11.8969C32.4865 11.905 32.5477 11.3509 32.575 10.5963C32.5874 10.2557 32.57 9.99995 32.4292 10.72C32.2883 11.4401 32.0179 13.1435 31.8894 14.1001C31.7609 15.0567 31.7825 15.2149 31.7882 15.1808C31.794 15.1467 31.7831 14.9155 31.7397 14.7173C31.6963 14.5191 31.6205 14.361 31.5274 14.9487C31.4343 15.5364 31.3261 16.8748 31.2812 17.4669C31.258 17.8644 31.2694 17.8706 31.3017 18.324C31.3448 18.5704 31.4422 18.8503 31.5753 19.1755" stroke="#88B8FF" stroke-width="2" stroke-linecap="round"/>
<path d="M20.691 4.79609C20.8641 4.77176 21.4942 4.73489 22.3463 4.69194C22.7229 4.67295 22.8217 4.63645 23.071 4.61801C24.133 4.59958 24.2746 4.57487 24.4056 4.56879C24.4609 4.56271 24.4933 4.55054 24.6251 4.538" stroke="#88B8FF" stroke-width="2" stroke-linecap="round"/>
<path d="M7.89205 13.2698C7.75063 13.7469 7.53636 14.7084 7.49887 15.6735C7.47889 16.1876 8.88624 14.8819 9.42513 14.7542C9.79924 14.6655 8.76197 16.6145 8.75233 16.9145C8.74269 17.2146 9.37906 16.3398 9.74224 16.1675C10.1054 15.9952 10.1761 16.5519 10.1065 17.1567C10.0369 17.7616 9.82473 18.3977 9.92758 18.3279C10.7257 17.7856 11.5282 15.8482 12.6691 14.7229C13.108 14.29 13.5273 14.5518 13.4619 15.0711C13.2713 16.5858 11.2603 18.4797 10.0411 19.2122C8.07739 20.3922 12.3874 14.6385 12.9948 14.3952C13.469 14.2052 11.9031 16.7904 10.189 18.6797C9.65073 19.2729 9.60618 18.899 9.92437 18.2182C10.7613 16.4276 12.0295 15.1205 12.4613 15.0759C13.6938 14.9487 9.97472 18.3182 8.33129 19.9267C6.94901 21.2796 12.7388 14.9615 13.9911 14.7157C16.7964 14.1651 11.466 19.2918 11.1082 19.3749C10.4847 19.5197 11.8153 17.3736 12.2824 16.9652C12.2545 17.2724 11.6889 18.6243 11.3267 19.44C10.9646 20.2557 10.8232 20.4942 10.6775 20.74" stroke="white" stroke-linecap="round"/>
<path d="M7.89201 21.7039C7.82131 21.9424 7.7506 22.181 7.67882 22.5822C7.60704 22.9834 7.53633 23.5401 8.03022 23.0714C8.5241 22.6027 9.58472 21.0918 10.0957 20.4725C10.6068 19.8532 10.5361 20.1713 10.1107 20.9316C9.68543 21.6918 8.90764 22.8846 8.75444 23.1015C8.60124 23.3184 9.09619 22.5232 9.38653 22.3521C9.67686 22.181 9.74757 22.6581 9.82042 23.1497" stroke="white" stroke-linecap="round"/>
<path d="M8.74908 20.258V20.981" stroke="white" stroke-linecap="round"/>
<path d="M6.60638 19.5351C6.60638 19.6942 7.03063 18.8218 7.70879 17.535C7.96269 17.2025 8.0334 17.5206 8.06983 17.8037C8.10625 18.0869 8.10625 18.3254 8.10625 18.5712" stroke="white" stroke-linecap="round"/>
</svg>
