<svg width="29" height="27" viewBox="0 0 29 27" fill="none" xmlns="http://www.w3.org/2000/svg">
<path d="M5.4126 17.8592C5.3226 17.8827 5.2326 17.9063 5.05123 17.9892C4.86987 18.072 4.59987 18.2134 4.34078 18.357C4.08169 18.5006 3.84169 18.642 3.4126 18.8592" stroke="#328BFF" stroke-width="2" stroke-linecap="round"/>
<path d="M7.4126 20.8592C6.54651 21.5706 5.58912 22.4984 5.06673 23.0893C4.93564 23.2152 4.80651 23.3213 4.71847 23.429C4.63042 23.5367 4.58738 23.6427 4.4126 23.8592" stroke="#328BFF" stroke-width="2" stroke-linecap="round"/>
<path d="M12.4126 18.8592C11.9467 19.3542 11.6291 19.6917 11.4726 19.8717C11.3161 20.0792 11.1197 20.275 10.9044 20.4412C10.8055 20.525 10.7279 20.6075 10.4126 20.8592" stroke="#328BFF" stroke-width="2" stroke-linecap="round"/>
<path d="M18.4126 17.8592C18.2184 18.2912 18.1076 18.7572 17.9134 19.1577C17.8576 19.2582 17.8026 19.3572 17.733 19.4412C17.6634 19.5252 17.5809 19.5912 17.4126 19.8592" stroke="#328BFF" stroke-width="2" stroke-linecap="round"/>
<path d="M14.4126 21.8592C13.4976 22.8916 12.9976 23.5805 12.7676 24.0471C12.7051 24.1681 12.6226 24.3047 12.5595 24.4262C12.4963 24.5478 12.4551 24.6502 12.4126 24.8592" stroke="#328BFF" stroke-width="2" stroke-linecap="round"/>
<path d="M23.4126 18.8592C23.3393 19.0242 23.2659 19.1892 23.1548 19.4392C23.0437 19.6892 22.897 20.0192 22.8032 20.251C22.7093 20.4829 22.6726 20.6067 22.4126 20.8592" stroke="#328BFF" stroke-width="2" stroke-linecap="round"/>
<path d="M19.4126 22.8592C19.3026 23.3757 19.1359 23.857 18.9555 24.2476C18.8851 24.4231 18.8576 24.5522 18.7884 24.7909C18.7193 25.0296 18.6093 25.3739 18.4126 25.8592" stroke="#328BFF" stroke-width="2" stroke-linecap="round"/>
<path d="M4.31959 13.9725C4.6409 14.0124 8.32316 13.8756 15.0618 13.7697C21.108 13.6747 24.242 14.4727 24.6204 14.3937C24.852 14.3454 24.8205 13.6992 24.7009 13.2952C24.4698 12.5146 23.7514 12.1872 23.2391 11.9952C22.0393 11.5456 20.993 12.6107 20.6226 12.995C19.3047 14.3627 20.9482 7.65496 20.162 5.41248C19.9506 4.8096 19.4231 4.29588 18.9258 3.92981C18.4284 3.56373 17.8751 3.41034 17.3267 3.5106C16.1809 3.72006 15.1554 4.94834 14.2585 6.41568C13.2275 8.10259 13.7682 10.1709 14.0459 11.4024C14.2742 12.4148 15.1177 12.9122 15.7381 13.246C16.3235 13.561 16.9573 13.3998 17.3896 13.1978C17.8211 12.9961 17.8342 12.1419 17.8797 11.3358C17.9211 10.6039 17.1031 9.06111 15.8347 7.10692C15.0145 5.84327 13.7669 5.63929 12.6293 5.54062C11.486 5.44144 10.2247 5.71126 9.11216 6.12817C8.32495 6.42316 8.16306 7.2538 8.01849 7.83312C7.93632 8.16237 8.01667 8.5997 8.26258 8.9757C8.80433 9.80408 9.82522 10.1161 10.6255 10.3014C11.0266 10.3943 11.4437 10.3194 11.7133 10.1396C11.9828 9.95978 12.0989 9.63509 12.0205 9.23875C11.942 8.84241 11.6654 8.38425 11.3667 8.08648C11.0681 7.78871 10.7557 7.6652 10.3806 7.70217C8.58988 7.87862 7.63335 9.92393 6.86563 10.9449C6.6838 11.1867 6.4878 11.4105 6.54292 11.6331C6.59804 11.8558 6.90146 12.0629 7.43714 12.0471C7.97281 12.0314 8.73155 11.7864 8.81005 11.5366C8.88855 11.2869 8.26382 11.0399 7.68758 11.0083C5.82838 11.4187 4.82109 11.6354 3.54349 12.7999C3.41614 13.172 3.62134 13.5366 4.07617 13.9423" stroke="#A3A3A3" stroke-width="7" stroke-linecap="round"/>
</svg>
