<svg width="52" height="59" viewBox="0 0 52 59" fill="none" xmlns="http://www.w3.org/2000/svg">
<path d="M11.0811 43.6102C10.8563 43.5549 10.6587 43.5357 10.4327 43.6187C10.0432 43.7619 9.84278 44.0194 9.80655 44.1445C9.75329 44.3284 9.98553 44.5587 10.2585 44.7401C10.3807 44.8213 10.5008 44.8385 10.6558 44.8067C11.0216 44.7315 11.256 44.4771 11.3437 44.2681C11.4006 44.0867 11.4012 43.8169 11.2323 43.4961C11.0839 43.3597 10.808 43.2768 10.5237 43.1913" stroke="#6DACFF" stroke-linecap="round"/>
<path d="M10.5236 43.3868L10.3378 39.9795" stroke="#6DACFF" stroke-linecap="round"/>
<path d="M10.4617 43.3868L5.75507 41.0408" stroke="#6DACFF" stroke-linecap="round"/>
<path d="M11.5455 43.1913C11.5455 43.1821 11.5455 43.1729 11.9798 42.6428C12.414 42.1127 13.2826 41.062 14.1775 39.9795" stroke="#6DACFF" stroke-linecap="round"/>
<path d="M10.7094 45.5373C10.7094 45.6018 10.7094 45.6663 10.7145 46.0636C10.7196 46.4609 10.7298 47.189 10.7404 47.9392" stroke="#6DACFF" stroke-linecap="round"/>
<path d="M9.65668 45.7049C9.26838 45.9076 8.88007 46.1104 8.3786 46.4314C7.87712 46.7525 7.27423 47.1856 6.65308 47.6319" stroke="#6DACFF" stroke-linecap="round"/>
<path d="M11.4526 45.0067C12.5153 45.4675 13.578 45.9283 14.2225 46.1795C14.8671 46.4308 15.0612 46.4584 15.2613 46.4869" stroke="#6DACFF" stroke-linecap="round"/>
<path d="M10.3379 45.1184C10.2153 45.2382 10.0926 45.358 10.0193 45.4428C9.94587 45.5275 9.92543 45.5736 9.87341 45.649" stroke="#6DACFF" stroke-linecap="round"/>
<path d="M4.94995 42.2697C6.63197 42.1488 6.82736 42.13 7.00277 42.1116C7.06857 42.1047 7.076 42.0563 7.07616 41.8023C7.07631 41.5483 7.0661 41.0783 7.03018 40.6518C6.99426 40.2253 6.93295 39.8567 6.86978 39.4489" stroke="#6DACFF" stroke-width="0.5" stroke-linecap="round"/>
<path d="M9.03735 40.0633C10.3066 41.078 10.4506 41.152 10.657 41.1947C10.7191 41.1536 10.7906 41.0431 10.9807 40.6912C11.1708 40.3393 11.4774 39.7494 11.8552 39.1138" stroke="#6DACFF" stroke-width="0.5" stroke-linecap="round"/>
<path d="M12.1958 40.0633C12.1958 40.9112 12.2367 41.5692 12.3037 41.9182C12.3338 42.0747 12.3608 42.1298 12.4019 42.1809C12.4327 42.2043 12.4838 42.2228 13.1079 42.2323C13.732 42.2418 14.9275 42.2418 16.1593 42.2418" stroke="#6DACFF" stroke-width="0.5" stroke-linecap="round"/>
<path d="M10.7094 46.8779C10.689 46.9147 10.4741 47.2932 10.1542 47.8516C9.9365 48.2317 9.74984 48.5067 9.70339 48.5809C9.68158 48.6158 9.6876 48.6552 9.85109 48.4162C10.0146 48.1771 10.3416 47.661 10.5662 47.3951C10.7909 47.1292 10.9033 47.1292 11.0327 47.1661C11.5139 47.408 11.8836 47.852 12.0767 48.1201C12.1026 48.162 12.1332 48.2173 12.1648 48.2743" stroke="#6DACFF" stroke-width="0.5" stroke-linecap="round"/>
<path d="M5.84796 46.2634C6.82893 46.8717 7.37515 47.2219 7.37066 47.4022C7.02494 48.1615 6.95248 48.469 6.937 48.6315C6.93173 48.7111 6.93173 48.7848 6.9627 48.8887" stroke="#6DACFF" stroke-width="0.5" stroke-linecap="round"/>
<path d="M14.1466 46.3193C14.1364 46.8078 14.1262 47.2963 14.1209 47.5709C14.1157 47.8456 14.1157 47.8917 14.1105 47.5514C14.1054 47.2111 14.0952 46.483 14.1053 46.0987C14.1153 45.7144 14.146 45.696 14.5399 45.5759C14.9337 45.4558 15.6899 45.2346 16.469 45.0067" stroke="#6DACFF" stroke-width="0.5" stroke-linecap="round"/>
<path d="M24.1394 54.2297C23.9788 54.1902 23.8377 54.1764 23.6763 54.2358C23.3981 54.338 23.2549 54.5219 23.229 54.6113C23.191 54.7427 23.3569 54.9072 23.5519 55.0367C23.6391 55.0947 23.7249 55.107 23.8356 55.0843C24.0969 55.0306 24.2644 54.8489 24.327 54.6996C24.3677 54.57 24.3681 54.3773 24.2475 54.1482C24.1414 54.0508 23.9443 53.9915 23.7413 53.9305" stroke="#6DACFF" stroke-linecap="round"/>
<path d="M23.7412 54.0701L23.6085 51.6364" stroke="#6DACFF" stroke-linecap="round"/>
<path d="M23.697 54.0701L20.3351 52.3944" stroke="#6DACFF" stroke-linecap="round"/>
<path d="M24.4711 53.9305C24.4711 53.9239 24.4711 53.9173 24.7813 53.5387C25.0915 53.16 25.7119 52.4096 26.3511 51.6364" stroke="#6DACFF" stroke-linecap="round"/>
<path d="M23.874 55.6062C23.874 55.6523 23.874 55.6983 23.8776 55.9821C23.8813 56.2659 23.8886 56.7859 23.8961 57.3218" stroke="#6DACFF" stroke-linecap="round"/>
<path d="M23.122 55.7258C22.8446 55.8707 22.5673 56.0155 22.2091 56.2448C21.8509 56.4741 21.4202 56.7835 20.9766 57.1023" stroke="#6DACFF" stroke-linecap="round"/>
<path d="M24.4048 55.2271C25.1639 55.5563 25.9229 55.8855 26.3833 56.0649C26.8437 56.2443 26.9824 56.2641 27.1253 56.2844" stroke="#6DACFF" stroke-linecap="round"/>
<path d="M23.6086 55.3069C23.521 55.3925 23.4334 55.4781 23.381 55.5386C23.3285 55.5992 23.314 55.6321 23.2768 55.6859" stroke="#6DACFF" stroke-linecap="round"/>
<path d="M19.7601 53.2722C20.9615 53.1858 21.1011 53.1724 21.2264 53.1592C21.2734 53.1543 21.2787 53.1197 21.2788 52.9383C21.2789 52.7569 21.2716 52.4211 21.2459 52.1165C21.2203 51.8119 21.1765 51.5486 21.1314 51.2573" stroke="#6DACFF" stroke-width="0.5" stroke-linecap="round"/>
<path d="M22.6796 51.6962C23.5862 52.4209 23.6891 52.4738 23.8365 52.5043C23.8808 52.475 23.9319 52.396 24.0677 52.1446C24.2035 51.8933 24.4225 51.472 24.6923 51.0179" stroke="#6DACFF" stroke-width="0.5" stroke-linecap="round"/>
<path d="M24.9357 51.6962C24.9357 52.3018 24.9649 52.7718 25.0127 53.0211C25.0342 53.1329 25.0536 53.1722 25.0829 53.2087C25.1049 53.2255 25.1414 53.2386 25.5871 53.2454C26.0329 53.2522 26.8869 53.2522 27.7667 53.2522" stroke="#6DACFF" stroke-width="0.5" stroke-linecap="round"/>
<path d="M23.874 56.5637C23.8594 56.59 23.7059 56.8603 23.4774 57.2592C23.3219 57.5307 23.1886 57.7271 23.1554 57.7802C23.1398 57.8051 23.1441 57.8332 23.2609 57.6625C23.3777 57.4917 23.6112 57.1231 23.7717 56.9332C23.9321 56.7432 24.0124 56.7432 24.1049 56.7696C24.4486 56.9423 24.7127 57.2595 24.8506 57.451C24.8691 57.481 24.891 57.5204 24.9135 57.5611" stroke="#6DACFF" stroke-width="0.5" stroke-linecap="round"/>
<path d="M20.4015 56.1248C21.1022 56.5593 21.4923 56.8095 21.4891 56.9382C21.2422 57.4806 21.1904 57.7002 21.1794 57.8163C21.1756 57.8731 21.1756 57.9258 21.1977 58" stroke="#6DACFF" stroke-width="0.5" stroke-linecap="round"/>
<path d="M26.3291 56.1647C26.3218 56.5136 26.3145 56.8625 26.3107 57.0587C26.307 57.2549 26.307 57.2879 26.3033 57.0448C26.2997 56.8017 26.2924 56.2816 26.2996 56.0071C26.3067 55.7326 26.3286 55.7195 26.61 55.6337C26.8913 55.5479 27.4314 55.3899 27.9879 55.2271" stroke="#6DACFF" stroke-width="0.5" stroke-linecap="round"/>
<path d="M37.199 39.5603C36.9216 39.4921 36.6778 39.4683 36.3989 39.5708C35.9183 39.7475 35.671 40.0652 35.6263 40.2196C35.5606 40.4465 35.8472 40.7306 36.184 40.9545C36.3348 41.0547 36.483 41.0759 36.6742 41.0366C37.1256 40.9439 37.4149 40.63 37.523 40.3721C37.5933 40.1482 37.5941 39.8153 37.3857 39.4195C37.2024 39.2512 36.862 39.1488 36.5112 39.0434" stroke="#6DACFF" stroke-linecap="round"/>
<path d="M36.5111 39.2846L36.2819 35.0803" stroke="#6DACFF" stroke-linecap="round"/>
<path d="M36.4347 39.2846L30.627 36.3898" stroke="#6DACFF" stroke-linecap="round"/>
<path d="M37.7719 39.0434C37.7719 39.032 37.7719 39.0206 38.3078 38.3666C38.8437 37.7125 39.9154 36.416 41.0196 35.0803" stroke="#6DACFF" stroke-linecap="round"/>
<path d="M36.7404 41.9382C36.7404 42.0178 36.7404 42.0974 36.7467 42.5876C36.753 43.0779 36.7656 43.9763 36.7786 44.9019" stroke="#6DACFF" stroke-linecap="round"/>
<path d="M35.4413 42.1449C34.9621 42.3951 34.483 42.6453 33.8642 43.0415C33.2454 43.4376 32.5015 43.9721 31.735 44.5228" stroke="#6DACFF" stroke-linecap="round"/>
<path d="M37.6573 41.2834C38.9687 41.852 40.28 42.4207 41.0753 42.7306C41.8706 43.0406 42.1102 43.0747 42.357 43.1099" stroke="#6DACFF" stroke-linecap="round"/>
<path d="M36.2818 41.4212C36.1305 41.5691 35.9792 41.7169 35.8886 41.8215C35.7981 41.9261 35.7729 41.983 35.7087 42.076" stroke="#6DACFF" stroke-linecap="round"/>
<path d="M29.6335 37.9061C31.709 37.7569 31.9501 37.7338 32.1665 37.7111C32.2477 37.7026 32.2569 37.6429 32.2571 37.3294C32.2573 37.016 32.2447 36.436 32.2003 35.9098C32.156 35.3835 32.0804 34.9286 32.0024 34.4255" stroke="#6DACFF" stroke-width="0.5" stroke-linecap="round"/>
<path d="M34.6771 35.1837C36.2432 36.4357 36.4209 36.527 36.6756 36.5797C36.7522 36.5291 36.8404 36.3926 37.075 35.9584C37.3096 35.5241 37.6879 34.7963 38.154 34.012" stroke="#6DACFF" stroke-width="0.5" stroke-linecap="round"/>
<path d="M38.5743 35.1837C38.5743 36.2299 38.6248 37.0418 38.7075 37.4724C38.7446 37.6656 38.778 37.7335 38.8286 37.7966C38.8666 37.8255 38.9297 37.8483 39.6998 37.86C40.4699 37.8717 41.9451 37.8717 43.465 37.8717" stroke="#6DACFF" stroke-width="0.5" stroke-linecap="round"/>
<path d="M36.7404 43.5923C36.7152 43.6378 36.45 44.1048 36.0553 44.7939C35.7866 45.2629 35.5563 45.6022 35.499 45.6938C35.4721 45.7369 35.4795 45.7855 35.6812 45.4905C35.883 45.1955 36.2865 44.5587 36.5637 44.2306C36.8409 43.9025 36.9796 43.9025 37.1393 43.948C37.733 44.2464 38.1892 44.7944 38.4275 45.1252C38.4594 45.1769 38.4972 45.2451 38.5362 45.3154" stroke="#6DACFF" stroke-width="0.5" stroke-linecap="round"/>
<path d="M30.7415 42.8342C31.952 43.5848 32.626 44.0169 32.6204 44.2394C32.1938 45.1762 32.1044 45.5556 32.0853 45.7562C32.0788 45.8544 32.0788 45.9454 32.117 46.0736" stroke="#6DACFF" stroke-width="0.5" stroke-linecap="round"/>
<path d="M40.9815 42.9031C40.9689 43.5059 40.9563 44.1086 40.9498 44.4475C40.9433 44.7865 40.9433 44.8433 40.937 44.4234C40.9307 44.0035 40.9181 43.1051 40.9305 42.6309C40.9429 42.1567 40.9807 42.1339 41.4668 41.9857C41.9528 41.8376 42.8858 41.5646 43.8472 41.2834" stroke="#6DACFF" stroke-width="0.5" stroke-linecap="round"/>
<path d="M5.2075 26.2664C5.88169 26.3528 13.6079 26.0561 27.7469 25.8266C40.4332 25.6206 47.009 27.3508 47.8029 27.1797C48.2888 27.0749 48.2227 25.6738 47.9718 24.7977C47.487 23.105 45.9796 22.3951 44.9048 21.9789C42.3874 21.0039 40.1919 23.3133 39.4147 24.1468C36.6494 27.1125 40.098 12.5675 38.4482 7.70494C38.0047 6.39768 36.8978 5.28374 35.8544 4.48995C34.8109 3.69616 33.6499 3.36355 32.4992 3.58094C30.095 4.03514 27.9433 6.69852 26.0615 9.88028C23.8981 13.5381 25.0326 18.023 25.6154 20.6934C26.0945 22.8887 27.8642 23.9672 29.1659 24.6911C30.3943 25.3741 31.7242 25.0245 32.6312 24.5865C33.5366 24.1492 33.5641 22.2969 33.6596 20.5489C33.7463 18.9619 32.0301 15.6166 29.3686 11.3791C27.6476 8.63907 25.0299 8.19677 22.643 7.9828C20.2442 7.76775 17.5977 8.35281 15.2634 9.25683C13.6116 9.89649 13.2719 11.6976 12.9686 12.9538C12.7962 13.6678 12.9648 14.6161 13.4807 15.4314C14.6174 17.2276 16.7595 17.9042 18.4387 18.306C19.2803 18.5073 20.1554 18.3449 20.721 17.9551C21.2866 17.5652 21.5302 16.8612 21.3656 16.0018C21.2009 15.1423 20.6206 14.1489 19.994 13.5032C19.3673 12.8575 18.7119 12.5897 17.9247 12.6699C14.1675 13.0525 12.1605 17.4875 10.5496 19.7013C10.1681 20.2256 9.75687 20.711 9.87253 21.1937C9.98819 21.6764 10.6248 22.1256 11.7488 22.0914C12.8728 22.0572 14.4647 21.526 14.6295 20.9845C14.7942 20.443 13.4833 19.9074 12.2743 19.8388C8.37328 20.7286 6.25975 21.1986 3.57908 23.7238C3.31187 24.5306 3.74242 25.3211 4.69676 26.2009" stroke="#D9D9D9" stroke-width="7" stroke-linecap="round"/>
</svg>
