<svg width="50" height="42" viewBox="0 0 50 42" fill="none" xmlns="http://www.w3.org/2000/svg">
<path d="M33.1792 11.7927C33.0975 11.7927 33.0158 11.7927 31.8032 12.2672C30.5905 12.7418 28.2493 13.6909 26.9343 14.4764C25.6193 15.262 25.4016 15.8552 25.2349 16.398C24.9284 17.3966 24.7655 19.1303 24.669 21.1658C24.6138 22.3299 24.928 23.0143 25.2708 23.6123C25.5999 24.1864 26.2455 24.6525 27.2861 25.1905C27.9055 25.5108 28.7624 25.6891 29.5238 25.8113C30.9325 26.0374 32.0746 25.8149 32.8574 25.5956C33.3474 25.4583 34.1081 24.8202 35.138 23.8238C35.908 23.0788 36.366 21.7464 36.8605 20.391C37.6059 18.3483 37.2495 16.4735 36.8387 15.1931C36.5565 14.3136 35.7687 13.5543 34.768 12.8167C33.6313 12.1977 32.9325 11.873 32.7679 11.813C32.685 11.7927 32.6034 11.7927 32.5192 11.7927" stroke="#FFC65C" stroke-width="2" stroke-linecap="round"/>
<path d="M26.0169 15.3031C25.5969 16.3408 25.1768 17.3786 25.3244 17.4542C26.3189 17.9632 27.0345 15.5063 27.1478 15.5238C27.6333 15.599 26.7281 17.6326 26.5401 18.1248C26.3781 18.5492 27.5564 16.0627 27.6527 16.2967C27.7491 16.5307 27.1049 18.7259 26.8431 19.777C26.5813 20.828 26.7213 20.6683 27.2696 19.4087C27.8178 18.149 28.77 15.7942 29.2885 14.4813C29.807 13.1684 29.8631 12.9688 29.8919 12.9259C29.9342 12.863 29.8368 13.605 29.1353 16.0469C28.5635 18.0377 27.3697 21.4424 26.9182 22.9313C26.4667 24.4201 26.7468 23.8614 27.0311 23.2143C27.3154 22.5672 27.5955 21.8488 28.1738 20.6006C28.7522 19.3524 29.6203 17.5963 30.0956 16.6118C30.5708 15.6272 30.6269 15.4676 30.0256 17.381C29.4243 19.2944 28.1641 23.2856 28.0889 23.7053C28.0138 24.125 29.1621 20.8522 29.8516 18.9467C30.5411 17.0411 30.7372 16.6021 30.8662 16.2761C30.9952 15.9502 31.0512 15.7506 30.968 16.2665C30.8848 16.7823 30.6608 18.0196 30.3493 19.4153C29.6943 22.3506 29.2138 24.0899 29.2694 24.1129C29.413 24.1723 29.5491 23.3776 30.0421 21.6529C30.5352 19.9281 31.3194 17.0544 31.8353 15.2747C32.3513 13.4949 32.5754 12.8963 32.6908 12.6876C32.8062 12.479 32.8062 12.6785 32.4001 14.7371C31.994 16.7956 31.1819 20.707 30.7355 22.9415C30.2891 25.176 30.2331 25.6151 30.3442 25.3823C30.4554 25.1494 30.7355 24.2315 31.0758 22.8805C31.4161 21.5295 31.8082 19.7733 32.1502 18.4296C32.7226 16.1808 33.0888 15.1035 33.1172 14.861C33.1222 14.8187 33.0897 14.9378 32.7112 16.9153C32.3327 18.8928 31.6045 22.7244 31.2294 24.7582C30.8543 26.7919 30.8543 26.9116 31.3724 24.6983C31.8905 22.485 32.9267 17.9349 33.4605 15.6708C33.9943 13.4067 33.9943 13.5663 33.7843 15.3049C33.5742 17.0435 33.1542 20.3563 33.0358 21.8234C32.9561 22.8112 33.7635 19.5641 34.3304 16.5688C34.3843 16.2842 34.2252 18.6824 34.0257 20.3744C33.7117 23.0383 33.4571 24.3705 33.4567 24.7552C33.4566 24.802 33.5683 24.4612 33.8356 22.6204C34.103 20.7796 34.551 17.4269 34.7819 16.079C35.0127 14.731 35.0127 15.4894 34.9007 17.0774C34.7887 18.6654 34.5646 21.0602 34.4492 22.4336C34.3338 23.8069 34.3338 24.0863 34.3618 24.1105C34.3898 24.1347 34.4458 23.8952 34.6287 22.315C34.8116 20.7349 35.1196 17.8212 35.2783 17.4378C35.437 17.0544 35.437 19.2895 35.479 20.3412C35.5211 21.3928 35.6051 21.1933 35.6624 20.5117C35.7196 19.8302 35.7476 18.6727 35.8041 17.6773C35.8605 16.6819 35.9445 15.8837 36.0311 14.8193" stroke="#FFA600" stroke-width="2" stroke-linecap="round"/>
<path d="M36.0311 14.6983C36.0311 15.1037 36.0595 17.1772 36.1168 19.1106C36.1191 19.1907 36.174 17.3958 36.2739 17.085C36.5444 17.9903 36.8053 19.2838 36.9345 19.2641C36.9784 19.204 36.9784 19.0418 36.9784 18.8748" stroke="#FFA600" stroke-width="2" stroke-linecap="round"/>
<path d="M29.5268 14.3804C31.2587 14.0096 32.9907 13.6389 32.6787 13.5097C32.3666 13.3805 29.9582 13.5041 30.2058 13.5677C30.4535 13.6314 33.4302 13.6314 33.5159 13.9403C33.6016 14.2493 30.706 14.8672 30.1615 15.2061C29.617 15.5451 31.5113 15.5863 32.406 15.6487C33.3007 15.7111 33.1383 15.7935 31.9045 16.0007C30.6708 16.2079 28.3705 16.5375 26.9014 16.8102C25.4323 17.083 24.864 17.289 27.1151 17.3127C29.3661 17.3364 34.4536 17.1716 35.2884 17.3751C36.1233 17.5786 32.5511 18.1553 31.6446 18.4524C30.738 18.7495 32.6053 18.7495 33.4048 18.8319C34.2043 18.9143 33.8796 19.0791 32.4946 19.4729C31.1095 19.8668 28.674 20.4847 27.3652 20.8648C26.0564 21.2449 25.9481 21.3685 27.3131 21.391C28.6781 21.4134 31.5195 21.3311 31.982 21.4328C33.5272 21.7727 27.7022 22.3672 28.612 22.6593C30.1645 23.1577 34.0682 22.5394 35.6017 22.5163C36.2186 22.5071 34.1576 23.1973 33.3966 23.8839C33.069 24.1794 35.5853 24.1173 35.4779 24.2615C33.8004 26.5129 31.2743 24.9911 31.6561 24.95C32.0453 24.9079 30.7987 24.8651 28.5309 25.1141C27.6954 25.2059 27.5079 25.3632 27.4915 25.4268C27.6374 25.4905 27.8859 25.4493 28.1307 25.3457C28.2943 25.2833 28.5378 25.2009 28.7888 25.116" stroke="#FFA600" stroke-width="2" stroke-linecap="round"/>
<path d="M24.9785 21.1378C25.3854 22.4636 25.7403 23.3952 25.946 23.689C26.3133 24.2138 25.1264 21.9363 25.0665 21.7863C24.7276 20.9373 25.7694 23.7292 26.0627 24.1485C26.5828 24.8922 26.2124 21.1429 26.0803 20.3067C26.0271 19.9702 26.0354 19.802 26.2097 20.2552C26.3841 20.7085 26.7329 21.7857 26.869 22.1127C26.9213 22.2386 26.4792 20.2715 25.9072 18.6162C25.7457 18.1489 25.5967 18.6595 25.5518 19.2672C25.4522 20.6146 25.5941 21.5547 25.7117 21.495C25.6249 19.635 25.5069 18.6708 25.5941 18.5848C25.6813 18.706 25.8557 19.1617 26.0354 19.6312" stroke="#FFA600" stroke-width="2" stroke-linecap="round"/>
<path d="M34.5361 13.8681C35.2585 14.5969 35.714 15.0937 35.7153 15.217C35.7204 15.7155 34.4309 14.7698 33.4479 14.6048C33.1603 14.5566 33.2984 14.9256 33.5645 15.3145C33.8305 15.7034 34.2195 16.1892 34.3782 16.3585C34.4536 16.3659 34.0621 16.1181 33.5573 15.9954C33.3582 15.9537 33.2748 15.9537 33.189 15.9537" stroke="#FFA600" stroke-width="2" stroke-linecap="round"/>
<path d="M32.5574 10.1323C32.7658 6.64288 32.8732 4.17121 32.8601 3.05073C32.8211 2.40607 32.7942 1.92424 32.8072 1.4442C32.8203 1.24173 32.8463 1.12278 32.8732 1.00021" stroke="#FFA600" stroke-width="2" stroke-linecap="round"/>
<path d="M21.6802 19.887C21.1834 19.7942 20.1823 19.6072 18.8877 19.3654C18.0071 19.2009 16.6309 18.9438 14.98 18.6355C14.3641 18.5204 14.1985 18.4895 13.9024 18.4342" stroke="#FFA600" stroke-width="2" stroke-linecap="round"/>
<path d="M39.5048 18.0191C39.6138 18.0191 39.7229 18.0191 41.1699 18.0191C42.6169 18.0191 45.3984 18.0191 48.3469 18.4342" stroke="#FFA600" stroke-width="2" stroke-linecap="round"/>
<path d="M31.2943 28.3964C31.2943 32.5599 31.3637 33.9752 31.3821 35.6212C31.2943 36.8109 31.329 37.8136 31.3816 38.1255C31.3995 38.2724 31.3995 38.3962 31.61 38.7738" stroke="#FFA600" stroke-width="2" stroke-linecap="round"/>
<path d="M37.61 24.6606C40.1054 28.3363 41.5265 30.3896 41.949 30.9314C42.2358 31.3134 42.6698 31.9126 42.9747 32.3612C43.2796 32.8098 43.4424 33.0894 43.6101 33.3776" stroke="#FFA600" stroke-width="2" stroke-linecap="round"/>
<path d="M24.1948 28.604C24.1409 28.604 23.4663 29.6338 22.4189 31.3526C21.3342 33.1326 20.603 34.7614 20.2893 35.6226C20.0729 36.2169 19.8402 37.0011 19.6221 37.624C19.5674 37.7645 19.5135 37.9229 19.4857 38.0837C19.4579 38.2446 19.4579 38.403 19.4579 38.5663" stroke="#FFA600" stroke-width="2" stroke-linecap="round"/>
<path d="M25.458 9.92474C23.8629 7.45908 22.7938 5.91921 22.2813 5.39502C21.3548 4.44741 20.8213 4.05012 20.2104 3.31229C20.0429 3.11615 19.8779 2.96205 19.7517 2.84414C19.6254 2.72623 19.5429 2.64917 19.4579 2.45304" stroke="#FFA600" stroke-width="2" stroke-linecap="round"/>
<path d="M39.458 11.5851C42.8163 8.37063 44.8217 6.43341 45.2938 5.92688C46.0445 5.01368 47.3208 3.63656 47.951 2.86094C48.049 2.73796 48.1316 2.6576 48.3001 2.45304" stroke="#FFA600" stroke-width="2" stroke-linecap="round"/>
<path d="M4.80448 37.719C5.32088 37.7871 11.2388 37.5534 22.0687 37.3725C31.7858 37.2103 36.8226 38.5734 37.4308 38.4385C37.8029 38.356 37.7523 37.2522 37.5601 36.562C37.1888 35.2284 36.0341 34.6691 35.2109 34.3412C33.2827 33.5731 31.601 35.3925 31.0058 36.0491C28.8876 38.3856 31.5291 26.9265 30.2655 23.0956C29.9258 22.0657 29.0779 21.1881 28.2787 20.5627C27.4794 19.9373 26.5901 19.6753 25.7087 19.8466C23.8673 20.2044 22.2191 22.3027 20.7778 24.8094C19.1207 27.6912 19.9897 31.2246 20.4361 33.3284C20.803 35.058 22.1586 35.9077 23.1556 36.4779C24.0965 37.0161 25.1151 36.7406 25.8098 36.3955C26.5033 36.0511 26.5245 34.5917 26.5976 33.2146C26.664 31.9643 25.3494 29.3287 23.3109 25.9903C21.9927 23.8316 19.9876 23.4831 18.1593 23.3145C16.3219 23.1451 14.2949 23.606 12.5068 24.3183C11.2417 24.8222 10.9815 26.2412 10.7491 27.2309C10.6171 27.7934 10.7462 28.5405 11.1414 29.1828C12.0121 30.5979 13.6528 31.131 14.939 31.4475C15.5836 31.6062 16.2539 31.4782 16.6872 31.1711C17.1204 30.8639 17.307 30.3093 17.1809 29.6322C17.0548 28.9551 16.6103 28.1724 16.1303 27.6637C15.6503 27.155 15.1483 26.944 14.5453 27.0072C11.6674 27.3086 10.1302 30.8027 8.89633 32.5468C8.60411 32.9599 8.2891 33.3423 8.37769 33.7226C8.46628 34.1029 8.95392 34.4568 9.81483 34.4298C10.6757 34.4029 11.8951 33.9844 12.0213 33.5577C12.1475 33.1311 11.1434 32.7092 10.2173 32.6551C7.22933 33.3562 5.61046 33.7265 3.55717 35.7159C3.3525 36.3515 3.68229 36.9743 4.41327 37.6675" stroke="#EFEFEF" stroke-width="7" stroke-linecap="round"/>
</svg>
