<svg width="42" height="42" viewBox="0 0 42 42" fill="none" xmlns="http://www.w3.org/2000/svg">
<path d="M22.839 12.4288C22.7465 12.4288 22.6539 12.4288 21.2795 12.9313C19.9052 13.4339 17.2518 14.4389 15.7615 15.2707C14.2712 16.1026 14.0244 16.7307 13.8355 17.3056C13.4881 18.363 13.3036 20.1989 13.1942 22.3544C13.1316 23.5871 13.4877 24.3118 13.8762 24.945C14.2492 25.553 14.9808 26.0465 16.1603 26.6163C16.8622 26.9554 17.8333 27.1442 18.6963 27.2737C20.2928 27.5132 21.5871 27.2775 22.4744 27.0453C23.0297 26.8999 23.8918 26.2242 25.0591 25.169C25.9317 24.3802 26.4507 22.9692 27.0112 21.5339C27.856 19.3708 27.452 17.3855 26.9864 16.0296C26.6667 15.0983 25.7738 14.2942 24.6397 13.5132C23.3514 12.8577 22.5595 12.5138 22.373 12.4504C22.279 12.4288 22.1864 12.4288 22.0911 12.4288" stroke="#FFC65C" stroke-width="2" stroke-linecap="round"/>
<path d="M14.7218 16.1461C14.2457 17.245 13.7696 18.3439 13.937 18.424C15.064 18.963 15.875 16.3613 16.0034 16.3799C16.5537 16.4595 15.5278 18.6129 15.3148 19.1342C15.1311 19.5836 16.4666 16.9505 16.5757 17.1983C16.6849 17.4461 15.9549 19.7707 15.6582 20.8837C15.3614 21.9967 15.5201 21.8276 16.1415 20.4937C16.7628 19.1598 17.8419 16.6661 18.4296 15.2759C19.0173 13.8856 19.0808 13.6743 19.1135 13.6288C19.1614 13.5622 19.0509 14.348 18.256 16.9338C17.6079 19.042 16.255 22.6473 15.7433 24.2239C15.2316 25.8005 15.549 25.2088 15.8712 24.5236C16.1934 23.8384 16.5108 23.0776 17.1663 21.7559C17.8217 20.4341 18.8057 18.5745 19.3443 17.5319C19.8829 16.4894 19.9464 16.3203 19.2649 18.3465C18.5835 20.3727 17.1552 24.5992 17.0701 25.0436C16.985 25.488 18.2863 22.0223 19.0678 20.0044C19.8492 17.9866 20.0714 17.5217 20.2176 17.1765C20.3638 16.8314 20.4273 16.62 20.333 17.1663C20.2388 17.7125 19.9849 19.0227 19.6319 20.5007C18.8895 23.6091 18.345 25.4509 18.408 25.4752C18.5707 25.5381 18.7249 24.6965 19.2837 22.8701C19.8425 21.0438 20.7312 18.0007 21.316 16.116C21.9008 14.2314 22.1547 13.5974 22.2855 13.3765C22.4163 13.1556 22.4163 13.3669 21.9561 15.5467C21.4959 17.7266 20.5754 21.8686 20.0695 24.2348C19.5636 26.601 19.5001 27.0659 19.6261 26.8194C19.7521 26.5728 20.0695 25.6007 20.4552 24.1701C20.8409 22.7395 21.2852 20.8798 21.6728 19.4569C22.3215 17.0756 22.7366 15.9348 22.7688 15.678C22.7744 15.6332 22.7376 15.7594 22.3086 17.8534C21.8796 19.9474 21.0544 24.0049 20.6293 26.1585C20.2041 28.3121 20.2041 28.4389 20.7913 26.0951C21.3785 23.7513 22.5529 18.9331 23.1579 16.5355C23.7628 14.1379 23.7628 14.307 23.5248 16.1481C23.2867 17.9892 22.8107 21.4972 22.6765 23.0507C22.5861 24.0968 23.5012 20.6583 24.1437 17.4865C24.2048 17.1851 24.0245 19.7246 23.7984 21.5164C23.4426 24.3373 23.154 25.748 23.1535 26.1553C23.1535 26.2049 23.28 25.8441 23.583 23.8948C23.886 21.9454 24.3938 18.3952 24.6554 16.9678C24.917 15.5403 24.917 16.3434 24.7901 18.025C24.6631 19.7067 24.4092 22.2426 24.2784 23.6969C24.1476 25.1512 24.1476 25.447 24.1793 25.4727C24.211 25.4983 24.2745 25.2447 24.4818 23.5714C24.6891 21.898 25.0382 18.8127 25.2181 18.4067C25.3979 18.0007 25.3979 20.3675 25.4455 21.4812C25.4931 22.5948 25.5884 22.3835 25.6533 21.6617C25.7182 20.94 25.7499 19.7143 25.8139 18.6603C25.8779 17.6062 25.9731 16.7609 26.0712 15.6338" stroke="#FFA600" stroke-width="2" stroke-linecap="round"/>
<path d="M26.0712 15.5057C26.0712 15.935 26.1034 18.1307 26.1683 20.178C26.171 20.2629 26.2332 18.3622 26.3465 18.0331C26.6529 18.9918 26.9487 20.3615 27.0951 20.3406C27.1449 20.2769 27.1449 20.1052 27.1449 19.9283" stroke="#FFA600" stroke-width="2" stroke-linecap="round"/>
<path d="M18.6996 15.169C20.6625 14.7764 22.6254 14.3838 22.2717 14.247C21.9181 14.1102 19.1885 14.241 19.4692 14.3085C19.7498 14.3759 23.1235 14.3759 23.2206 14.7031C23.3178 15.0302 20.0361 15.6846 19.419 16.0435C18.8019 16.4024 20.9488 16.446 21.9627 16.5121C22.9767 16.5782 22.7927 16.6654 21.3944 16.8849C19.9961 17.1043 17.3892 17.4533 15.7242 17.7421C14.0592 18.0309 13.4152 18.2491 15.9663 18.2742C18.5175 18.2993 24.2834 18.1248 25.2295 18.3403C26.1756 18.5557 22.1272 19.1665 21.0998 19.4811C20.0723 19.7957 22.1886 19.7957 23.0947 19.8829C24.0008 19.9702 23.6328 20.1447 22.0631 20.5617C20.4934 20.9788 17.7331 21.6331 16.2498 22.0357C14.7665 22.4382 14.6438 22.569 16.1908 22.5928C17.7377 22.6166 20.958 22.5294 21.4822 22.6371C23.2334 22.997 16.6318 23.6266 17.6629 23.9359C19.4224 24.4637 23.8466 23.809 25.5845 23.7845C26.2837 23.7747 23.9479 24.5056 23.0854 25.2327C22.7142 25.5456 25.5659 25.4799 25.4442 25.6325C23.5431 28.0166 20.6802 26.4052 21.1128 26.3616C21.554 26.3171 20.1411 26.2717 17.5709 26.5354C16.624 26.6326 16.4115 26.7991 16.3929 26.8665C16.5583 26.934 16.8399 26.8903 17.1174 26.7806C17.3028 26.7145 17.5788 26.6273 17.8632 26.5374" stroke="#FFA600" stroke-width="2" stroke-linecap="round"/>
<path d="M13.5449 22.3248C14.006 23.7287 14.4083 24.7152 14.6414 25.0263C15.0577 25.582 13.7126 23.1703 13.6447 23.0114C13.2606 22.1124 14.4412 25.0688 14.7736 25.5129C15.3631 26.3004 14.9433 22.3301 14.7936 21.4446C14.7333 21.0883 14.7427 20.9102 14.9403 21.3901C15.138 21.8701 15.5332 23.0108 15.6875 23.3571C15.7468 23.4904 15.2458 21.4074 14.5974 19.6545C14.4144 19.1596 14.2456 19.7004 14.1947 20.3438C14.0818 21.7707 14.2426 22.7662 14.3758 22.703C14.2775 20.7334 14.1438 19.7123 14.2426 19.6213C14.3414 19.7496 14.539 20.2322 14.7427 20.7294" stroke="#FFA600" stroke-width="2" stroke-linecap="round"/>
<path d="M24.3769 14.6266C25.1956 15.3983 25.7118 15.9244 25.7133 16.055C25.7191 16.5828 24.2576 15.5814 23.1436 15.4067C22.8176 15.3556 22.9742 15.7464 23.2757 16.1582C23.5772 16.5701 24.0181 17.0845 24.198 17.2638C24.2834 17.2716 23.8397 17.0092 23.2676 16.8793C23.0419 16.8351 22.9475 16.8351 22.8501 16.8351" stroke="#FFA600" stroke-width="2" stroke-linecap="round"/>
<path d="M22.1343 10.6706C22.3705 6.97547 22.4922 4.35812 22.4775 3.17159C22.4332 2.48894 22.4028 1.97871 22.4175 1.47038C22.4323 1.25598 22.4618 1.13001 22.4922 1.00022" stroke="#FFA600" stroke-width="2" stroke-linecap="round"/>
<path d="M9.80685 21.0002C9.24384 20.902 8.10929 20.7039 6.64205 20.4479C5.64398 20.2737 4.08433 20.0015 2.21331 19.6749C1.51524 19.5531 1.32757 19.5203 0.992035 19.4618" stroke="#FFA600" stroke-width="2" stroke-linecap="round"/>
<path d="M30.008 19.0222C30.1317 19.0222 30.2553 19.0222 31.8952 19.0222C33.5351 19.0222 36.6875 19.0222 40.0291 19.4618" stroke="#FFA600" stroke-width="2" stroke-linecap="round"/>
<path d="M20.7028 30.0112C20.7028 34.4201 20.7815 35.9188 20.8024 37.6618C20.7028 38.9216 20.7421 39.9834 20.8018 40.3137C20.8221 40.4693 20.8221 40.6004 21.0607 41.0002" stroke="#FFA600" stroke-width="2" stroke-linecap="round"/>
<path d="M27.8607 26.0552C30.6887 29.9475 32.2993 32.1218 32.7781 32.6956C33.1032 33.1 33.595 33.7347 33.9406 34.2097C34.2862 34.6847 34.4706 34.9808 34.6607 35.2859" stroke="#FFA600" stroke-width="2" stroke-linecap="round"/>
<path d="M12.6568 30.231C12.5957 30.231 11.8311 31.3215 10.6441 33.1416C9.41472 35.0265 8.58601 36.7513 8.23058 37.6633C7.9853 38.2926 7.72151 39.123 7.47437 39.7827C7.41236 39.9314 7.35127 40.0992 7.3198 40.2695C7.28833 40.4398 7.28833 40.6076 7.28833 40.7804" stroke="#FFA600" stroke-width="2" stroke-linecap="round"/>
<path d="M14.0883 10.4508C12.2807 7.83978 11.0689 6.20915 10.4881 5.65407C9.43809 4.6506 8.83344 4.22989 8.14116 3.44857C7.95133 3.24088 7.76433 3.07769 7.62125 2.95283C7.47816 2.82797 7.38466 2.74637 7.28833 2.53868" stroke="#FFA600" stroke-width="2" stroke-linecap="round"/>
<path d="M29.955 12.209C33.7611 8.80505 36.0338 6.75366 36.5689 6.21727C37.4198 5.25024 38.8662 3.79196 39.5804 2.97062C39.6915 2.8404 39.7851 2.7553 39.9761 2.53868" stroke="#FFA600" stroke-width="2" stroke-linecap="round"/>
</svg>
